<?xml version="1.0" encoding="UTF-8"?>
<svg id="Camada_2" data-name="Camada 2" xmlns="http://www.w3.org/2000/svg" viewBox="0 0 1271.11 318.14">
  <defs>
    <style>
      .cls-1 {
        fill: #f4f4f4;
      }

      .cls-2 {
        fill: #45f135;
      }

      .cls-3 {
        fill: #020202;
      }
    </style>
  </defs>
  <g id="Camada_1-2" data-name="Camada 1">
    <g>
      <polygon class="cls-1" points="147.33 0 146.6 217.66 .02 318.14 0 0 147.33 0"/>
      <path class="cls-2" d="M146.6,217.66l.73-217.66,93.36.04c59.15,2.53,104.6,51.23,104.41,109.21-.19,57.8-46.2,106.81-105.42,108.26l-93.07.16Z"/>
      <path class="cls-3" d="M1183.62,207.21l-31.66.14-.26-73.79c-.85-15.83-12.26-25.75-27.52-25.76s-27.17,9.9-28.04,26.05l-.21,73.49h-31.73s.01-108.57.01-108.57c-.18-9.39,6.78-16.7,15.97-16.71l15.78-.03.44,14.37c10.5-12.49,25.89-17.35,42-15.93,16.17,1.42,30.4,9.31,38.34,23.53,10.56-17.44,29.14-25.02,48.52-23.63,25.24,1.82,43.66,20.01,45.51,45.66l.35,81.33h-31.74s-.2-73.54-.2-73.54c-.78-16.18-12.54-26.25-28.07-26.02-15.15.22-26.44,10.18-27.3,26.02l-.2,73.4Z"/>
      <path class="cls-3" d="M474.35,191.98l-.19,74.93-31.74.09.14-170.2c0-7.9,7-14.63,14.06-14.65l17.59-.05.44,15.06c26.08-22.2,63.84-19.68,86.68,4.37,22.84,24.05,22.91,62.15.06,86.22s-60.73,26.81-87.02,4.24ZM552.06,145.82c0-20.02-16.27-36.26-36.33-36.26s-36.33,16.23-36.33,36.26,16.27,36.26,36.33,36.26,36.33-16.23,36.33-36.26Z"/>
      <path class="cls-3" d="M1003.67,168.01l34.48-.04c-5.79,18.74-19.67,32.6-37.77,38.52-33.03,9.16-68.07-3.66-79.53-36.52-5.75-16.48-5.67-34.32-.04-50.86,11.33-33.32,47.07-45.5,80.03-35.99,31.54,10.49,44.06,39.23,39.51,71.16l-91.32-.03c.57,17.62,14.95,30.26,32.27,28.65,9.66-.47,18.11-5.32,22.37-14.88ZM1008.43,132.71c-.39-14.81-11.1-24.23-24.17-26.13-17.56-3.18-33.34,8.18-35.03,26.38l59.21-.25Z"/>
      <path class="cls-3" d="M906.46,180.52l.1,26.8-29.39-.64c-17.35-1.81-30.03-14.32-30.15-32.01l-.47-66.31-14.77-.19-.07-26.12,14.88-.09.03-14.22c.02-9.06,6.57-16.62,15.73-16.64l16.17-.03.08,30.88,27.93.1.12,26.11-28.03.05.14,62.67c.01,5.59,4.42,9.48,9.61,9.52l18.1.14Z"/>
      <path class="cls-3" d="M817.59,107.9c-10.75-.58-20.74.26-28.83,7.14-7.18,6.1-10.98,15.22-11.01,24.82l-.25,67.48h-31.71s.02-109.54.02-109.54c0-8.97,6.86-15.75,15.6-15.76l16.07-.02.19,18.83c10.9-15.3,20.38-19.55,39.87-18.23l.05,25.28Z"/>
      <path class="cls-3" d="M722.18,82.1v125.22s-31.79.04-31.79.04l-.29-13.44c-26.29,20.79-63.52,17.58-85.83-6.64-22.15-24.05-22.07-61.42.1-85.33,22.46-24.23,59.59-27.23,85.8-6.43,2.2-8.67,8.43-13.52,16.3-13.48l15.71.07ZM688.56,146.19c0-20.02-16.27-36.25-36.33-36.25s-36.33,16.23-36.33,36.25,16.27,36.25,36.33,36.25,36.33-16.23,36.33-36.25Z"/>
    </g>
  </g>
</svg>